<?xml version="1.0" encoding="UTF-8"?>
<svg id="Layer_1" data-name="Layer 1" xmlns="http://www.w3.org/2000/svg" viewBox="0 0 92 128">
  <defs>
    <style>
      .cls-1 {
        fill: #fff;
      }

      .cls-2 {
        fill: #acd1fc;
      }

      .cls-3 {
        fill: #3a5bbc;
      }

      .cls-4 {
        fill: #518ef8;
      }
    </style>
  </defs>
  <g>
    <path class="cls-4" d="M57.5,36c-4.68,0-8.5-3.83-8.5-8.5V0H8.5C3.83,0,0,3.83,0,8.5v110.99c0,4.68,3.83,8.5,8.5,8.5h74.99c4.68,0,8.5-3.83,8.5-8.5V45.96l-35.3-9.96h.8Z"/>
    <path class="cls-2" d="M49,27.5c0,4.68,3.83,8.5,8.5,8.5h34.5L49,0v27.5Z"/>
    <polygon class="cls-3" points="56.7 36 92 45.96 92 36 57.5 36 56.7 36"/>
  </g>
  <rect class="cls-1" x="18.5" y="64" width="55" height="6"/>
  <rect class="cls-1" x="19" y="76" width="55" height="6"/>
  <rect class="cls-1" x="19.5" y="88" width="55" height="6"/>
  <rect class="cls-1" x="20" y="100" width="35" height="6"/>
</svg>