<svg height="1.707in" style="enable-background:new 0 0 122.88 122.88;shape-rendering:geometricPrecision;text-rendering:geometricPrecision;image-rendering:optimizeQuality;fill-rule:evenodd;clip-rule:evenodd" viewBox="0 0 1707 1707" width="1.707in" xmlns="http://www.w3.org/2000/svg"><g id="Layer_x0020_1"><path d="m853 20v109" fill="none" stroke="#000" stroke-linecap="round" stroke-linejoin="round" stroke-width="40"/><g fill="#000002"><path d="m1375 1707h-1043c-64 0-115-52-115-115v-154c0-64 51-115 115-115h1043c63 0 115 51 115 115v154c0 63-52 115-115 115zm-1043-344c-42 0-75 33-75 75v154c0 41 33 75 75 75h1043c41 0 75-34 75-75v-154c0-42-34-75-75-75z"/><path d="m1349 1363c-11 0-20-9-20-20v-570c0-262-212-474-474-474-263 0-478 212-478 474v570c0 26-40 26-40 0v-570c0-284 233-514 518-514 284 0 514 230 514 514v570c0 11-9 20-20 20z"/><path d="m853 958c-64 0-117-53-117-117v-347c0-64 53-116 117-116 65 0 117 52 117 116v347c0 64-52 117-117 117zm0-540c-42 0-77 34-77 76v347c0 101 154 101 154 0v-347c0-42-34-76-77-76z"/><path d="m853 1244c-64 0-117-53-117-117 0-65 53-117 117-117 65 0 117 52 117 117 0 64-52 117-117 117zm0-194c-101 0-101 154 0 154 102 0 102-154 0-154z"/><path d="m1330 1477h-953c-27 0-27-40 0-40h953c26 0 26 40 0 40z"/><path d="m1330 1592h-953c-27 0-27-40 0-40h953c26 0 26 40 0 40z"/><path d="m853 149c-11 0-20-9-20-20v-109c0-26 40-26 40 0v109c0 11-9 20-20 20z"/><path d="m530 235c-7 0-13-3-17-10l-54-94c-13-23 21-43 34-20l55 94c7 14-3 30-18 30z"/><path d="m294 472c-11 0-89-48-104-57-23-13-3-48 20-35l94 54c17 11 10 38-10 38z"/><path d="m207 795h-108c-27 0-27-40 0-40h108c27 0 27 40 0 40z"/><path d="m1176 235c-15 0-25-16-17-30l54-94c13-23 48-3 35 20l-54 94c-4 7-11 10-18 10z"/><path d="m1413 472c-20 0-28-27-10-38l94-54c23-13 43 22 20 35-15 9-93 57-104 57z"/><path d="m1608 795h-109c-26 0-26-40 0-40h109c26 0 26 40 0 40z"/></g><path d="m736 841v-347c0-64 53-116 117-116 65 0 117 52 117 116v347c0 64-52 117-117 117-64 0-117-53-117-117zm593 482v-550c0-262-212-474-474-474-263 0-478 212-478 474v550zm-593-196c0-65 53-117 117-117 65 0 117 52 117 117 0 64-52 117-117 117-64 0-117-53-117-117z" fill="#f74c48"/><path d="m776 494v347c0 101 154 101 154 0v-347c0-42-34-76-77-76-42 0-77 34-77 76z" fill="#fff"/><path d="m853 1050c-101 0-101 154 0 154 102 0 102-154 0-154z" fill="#fff"/><path d="m1349 1363h-1017c-42 0-75 33-75 75v154c0 41 33 75 75 75h1043c41 0 75-34 75-75v-154c0-42-34-75-75-75zm-19 74c26 0 26 40 0 40h-953c-27 0-27-40 0-40zm-953 115h953c26 0 26 40 0 40h-953c-27 0-27-40 0-40z" fill="#585a60"/></g></svg>