<svg id="Capa_1" enable-background="new 0 0 512 512" height="512" viewBox="0 0 512 512" width="512" xmlns="http://www.w3.org/2000/svg"><g><path d="m499.01 294.405c1.962-12.515 2.99-25.339 2.99-38.405s-1.028-25.89-2.99-38.405l-38.116-13.554c-5.059-20.01-12.975-38.879-23.283-56.158l17.366-36.534c-15.161-20.819-33.507-39.165-54.326-54.326l-36.534 17.366c-17.279-10.309-36.148-18.224-56.158-23.283l-13.554-38.116c-12.515-1.962-25.339-2.99-38.405-2.99s-25.89 1.028-38.405 2.99l-13.554 38.116c-20.01 5.059-38.879 12.974-56.158 23.283l-36.534-17.366c-20.819 15.161-39.165 33.507-54.326 54.326l17.366 36.534c-10.309 17.279-18.224 36.148-23.283 56.158l-38.116 13.554c-1.962 12.515-2.99 25.339-2.99 38.405s1.028 25.89 2.99 38.405l38.116 13.554c5.059 20.01 12.975 38.879 23.283 56.158l-17.366 36.534c15.161 20.819 33.507 39.165 54.326 54.326l36.534-17.366c17.279 10.309 36.148 18.224 56.158 23.283l13.554 38.116c12.515 1.962 25.339 2.99 38.405 2.99s25.89-1.028 38.405-2.99l13.554-38.116c20.01-5.059 38.879-12.974 56.158-23.283l36.534 17.366c20.819-15.161 39.165-33.507 54.326-54.326l-17.366-36.534c10.309-17.279 18.224-36.148 23.283-56.158z" fill="#66e0f7"/><g><path d="m102 256c0-85.052 68.948-154 154-154s154 68.948 154 154-68.948 154-154 154-154-68.948-154-154z" fill="#fff"/><path d="m330.243 305.04-51.496-10.531h-45.492l-51.496 10.531c-17.69 3.618-30.394 19.182-30.394 37.239v26.7c27.469 25.454 64.231 41.021 104.635 41.021s77.166-15.567 104.637-41.021v-26.7c0-18.057-12.704-33.621-30.394-37.239z" fill="#ff7d97"/><g fill="#ffd0c7"><path d="m256 160.849c-26.155 0-47.358 21.203-47.358 47.358v22.916c0 26.155 21.203 47.358 47.358 47.358 26.155 0 47.358-21.203 47.358-47.358v-22.916c0-26.155-21.203-47.358-47.358-47.358z"/><path d="m256 318.858c-12.15 0-22-9.85-22-22v-22h44v22c0 12.151-9.85 22-22 22z"/></g></g><g><path d="m508.889 216.046c-.568-3.623-3.074-6.645-6.529-7.873l-33.156-11.791c-4.762-17.063-11.573-33.49-20.301-48.962l15.106-31.778c1.573-3.311 1.21-7.217-.948-10.18-15.804-21.703-34.821-40.72-56.523-56.523-2.963-2.158-6.869-2.521-10.18-.948l-31.778 15.106c-15.472-8.728-31.899-15.539-48.962-20.301l-11.791-33.156c-1.229-3.455-4.25-5.961-7.873-6.529-13.168-2.064-26.61-3.111-39.954-3.111s-26.786 1.047-39.954 3.111c-3.623.568-6.645 3.074-7.873 6.529l-11.791 33.156c-17.063 4.762-33.49 11.573-48.962 20.301l-31.778-15.106c-3.31-1.573-7.217-1.21-10.18.948-21.701 15.803-40.718 34.821-56.523 56.523-2.158 2.963-2.521 6.869-.948 10.18l15.106 31.778c-8.728 15.472-15.539 31.899-20.301 48.962l-33.156 11.791c-3.455 1.229-5.961 4.25-6.529 7.873-2.064 13.168-3.111 26.61-3.111 39.954s1.047 26.786 3.111 39.954c.568 3.623 3.074 6.645 6.529 7.873l33.156 11.791c4.762 17.063 11.573 33.49 20.301 48.962l-15.106 31.778c-1.573 3.311-1.21 7.217.948 10.18 15.804 21.702 34.821 40.719 56.523 56.523 2.963 2.158 6.87 2.522 10.18.948l31.778-15.106c15.472 8.728 31.898 15.539 48.962 20.301l11.791 33.156c1.229 3.455 4.25 5.961 7.873 6.529 13.168 2.064 26.61 3.111 39.954 3.111s26.786-1.047 39.954-3.111c3.623-.568 6.645-3.074 7.873-6.529l11.791-33.156c17.064-4.762 33.49-11.573 48.962-20.301l31.778 15.106c3.31 1.574 7.216 1.21 10.18-.948 21.702-15.804 40.719-34.821 56.523-56.523 2.158-2.963 2.521-6.869.948-10.18l-15.106-31.778c8.728-15.472 15.539-31.899 20.301-48.962l33.156-11.791c3.455-1.229 5.961-4.25 6.529-7.873 2.064-13.168 3.111-26.61 3.111-39.954s-1.047-26.786-3.111-39.954zm-18.916 70.959-32.429 11.532c-3.146 1.119-5.526 3.733-6.344 6.971-4.75 18.788-12.211 36.783-22.176 53.485-1.711 2.868-1.877 6.4-.444 9.417l14.777 31.087c-12.649 16.495-27.364 31.21-43.859 43.859l-31.087-14.777c-3.016-1.433-6.549-1.267-9.417.444-16.702 9.965-34.697 17.426-53.485 22.176-3.237.818-5.852 3.198-6.971 6.344l-11.532 32.429c-20.524 2.692-41.485 2.692-62.01 0l-11.532-32.429c-1.119-3.146-3.733-5.526-6.971-6.344-18.789-4.75-36.784-12.211-53.485-22.176-2.868-1.711-6.4-1.877-9.417-.444l-31.087 14.777c-16.495-12.649-31.21-27.364-43.859-43.859l14.777-31.087c1.434-3.016 1.267-6.549-.444-9.417-9.965-16.702-17.426-34.697-22.176-53.485-.818-3.237-3.198-5.852-6.344-6.971l-32.429-11.532c-1.348-10.262-2.029-20.666-2.029-31.005s.681-20.743 2.027-31.005l32.429-11.532c3.146-1.119 5.526-3.733 6.344-6.971 4.75-18.788 12.211-36.783 22.176-53.485 1.711-2.868 1.877-6.4.444-9.417l-14.777-31.087c12.65-16.496 27.365-31.21 43.859-43.859l31.087 14.777c3.016 1.433 6.549 1.268 9.417-.444 16.702-9.965 34.697-17.426 53.485-22.176 3.237-.818 5.852-3.198 6.971-6.344l11.532-32.429c20.524-2.692 41.485-2.692 62.01 0l11.532 32.429c1.119 3.146 3.733 5.526 6.971 6.344 18.788 4.75 36.783 12.211 53.485 22.176 2.868 1.711 6.401 1.877 9.417.444l31.087-14.777c16.495 12.649 31.209 27.364 43.859 43.859l-14.777 31.087c-1.434 3.016-1.267 6.549.444 9.417 9.965 16.702 17.426 34.697 22.176 53.485.818 3.237 3.198 5.852 6.344 6.971l32.429 11.532c1.348 10.262 2.029 20.666 2.029 31.005s-.681 20.743-2.027 31.005z"/><path d="m303.411 98.96c-5.284-1.595-10.866 1.399-12.461 6.688-1.594 5.288 1.4 10.867 6.688 12.461 28.989 8.741 55.054 26.943 73.395 51.254 18.95 25.119 28.967 55.077 28.967 86.637 0 32.68-10.95 62.846-29.363 87.039v-.76c0-22.705-16.146-42.486-38.391-47.036l-44.246-9.049v-7.493c15.286-10.314 25.358-27.792 25.358-47.579v-22.916c0-31.627-25.73-57.358-57.358-57.358s-57.358 25.731-57.358 57.358v22.916c0 19.787 10.072 37.265 25.358 47.579v7.493l-44.247 9.049c-22.245 4.55-38.39 25.092-38.39 47.797-18.413-24.193-29.363-54.36-29.363-87.04 0-31.559 10.017-61.517 28.967-86.636 18.34-24.311 44.406-42.514 73.394-51.254 5.288-1.594 8.282-7.173 6.688-12.461s-7.175-8.28-12.461-6.688c-33.023 9.958-62.708 30.683-83.586 58.358-21.59 28.617-33.002 62.741-33.002 98.681 0 90.43 73.57 164 164 164s164-73.57 164-164c0-35.941-11.412-70.065-33.001-98.682-20.879-27.676-50.564-48.401-83.588-58.358zm-59.411 188.248c3.872.828 7.884 1.273 12 1.273s8.128-.445 12-1.273v9.651c0 6.617-5.383 12-12 12s-12-5.383-12-12zm-25.358-79.001c0-20.6 16.759-37.358 37.358-37.358s37.358 16.759 37.358 37.358v22.916c0 20.599-16.759 37.358-37.358 37.358s-37.358-16.759-37.358-37.358zm-57.278 156.235v-22.164c0-13.247 9.419-24.787 22.397-27.441l41.667-8.521c4.043 13.042 16.219 22.542 30.572 22.542s26.529-9.5 30.572-22.542l41.666 8.521c12.979 2.654 22.398 14.195 22.398 27.441v22.163c-25.325 22.131-58.441 35.559-94.636 35.559s-69.31-13.428-94.636-35.558z"/><circle cx="256" cy="102" r="10"/></g></g></svg>