<svg clip-rule="evenodd" fill-rule="evenodd" height="1.707in" image-rendering="optimizeQuality" shape-rendering="geometricPrecision" text-rendering="geometricPrecision" viewBox="0 0 1707 1707" width="1.707in" xmlns="http://www.w3.org/2000/svg"><g id="Layer_x0020_1"><path d="m1497 1533h-1287c-116 0-210-94-210-210v-860h1707v860c0 116-95 210-210 210z" fill="#bee0fb"/><path d="m0 517v-134c0-55 22-107 61-147 40-40 93-63 149-63h1287c56 0 108 23 148 63s62 92 62 147v134z" fill="#688ed5"/><path d="m317 368h-130c-13 0-24-10-24-23s11-23 24-23h130c13 0 23 10 23 23s-10 23-23 23z" fill="#dc646e"/><path d="m593 368h-130c-13 0-23-10-23-23s10-23 23-23h130c13 0 24 10 24 23s-11 23-24 23z" fill="#fbb96c"/><path d="m873 368h-130c-13 0-23-10-23-23s10-23 23-23h130c13 0 24 10 24 23s-11 23-24 23z" fill="#85eea9"/><path d="m1440 415c-38 0-70-32-70-70 0-39 31-70 70-70s70 31 70 70c0 38-32 70-70 70z" fill="#fbb96c"/><path d="m1257 415c-36 0-70-34-70-70 0-38 32-70 70-70 39 0 70 31 70 70 0 38-32 70-70 70z" fill="#dc646e"/><g id="_586041824" fill="#a0bcd1"><path d="m740 730h-547c-13 0-23-10-23-23s10-24 23-24h547c13 0 23 11 23 24s-10 23-23 23z"/><path d="m740 943h-547c-13 0-23-10-23-23s10-23 23-23h547c13 0 23 10 23 23s-10 23-23 23z"/><path d="m740 1157h-547c-13 0-23-11-23-24s10-23 23-23h547c13 0 23 10 23 23s-10 24-23 24z"/><path d="m740 1370h-547c-13 0-23-10-23-23s10-24 23-24h547c13 0 23 11 23 24s-10 23-23 23z"/></g><g id="_586040768"><path d="m1187 1340c-76 0-146-29-199-81-52-53-81-123-81-199 0-154 125-280 280-280 13 0 23 10 23 23v234h233c13 0 24 10 24 23 0 154-126 280-280 280z" fill="#2196f3"/><path d="m908 1037c12-144 132-257 279-257 13 0 23 10 23 23v234z" fill="#4caf50"/><path d="m1513 1017h-256c-13 0-24-11-24-24v-256c0-13 11-24 24-24 74 0 145 30 196 81 53 53 84 125 84 199 0 13-11 24-24 24z" fill="#fec106"/></g></g></svg>