<svg id="Layer_1" enable-background="new 0 0 68 68" viewBox="0 0 68 68" xmlns="http://www.w3.org/2000/svg"><g><g><path d="m31.1595535 55.2890396c0 4.0274696-3.2649097 7.2923813-7.2923813 7.2923813s-7.2923794-3.2649117-7.2923794-7.2923813 3.2649097-7.2923775 7.2923794-7.2923775 7.2923813 3.2649079 7.2923813 7.2923775zm17.7345314-7.2923775c-4.0274696 0-7.2923813 3.2649078-7.2923813 7.2923775s3.2649117 7.2923813 7.2923813 7.2923813 7.2923775-3.2649117 7.2923775-7.2923813-3.2649078-7.2923775-7.2923775-7.2923775z" fill="#304056"/><path d="m48.8944626 63.0810547c-4.296875 0-7.7929688-3.4951172-7.7929688-7.7919922s3.4960938-7.7919922 7.7929688-7.7919922 7.7919922 3.4951172 7.7919922 7.7919922-3.4951172 7.7919922-7.7919922 7.7919922zm0-14.5839844c-3.7460938 0-6.7929688 3.046875-6.7929688 6.7919922s3.046875 6.7919922 6.7929688 6.7919922c3.7451172 0 6.7919922-3.046875 6.7919922-6.7919922s-3.046875-6.7919922-6.7919922-6.7919922zm-25.0273419 14.5839844c-4.296875 0-7.7919922-3.4951172-7.7919922-7.7919922s3.4951172-7.7919922 7.7919922-7.7919922 7.7919922 3.4951172 7.7919922 7.7919922-3.4951172 7.7919922-7.7919922 7.7919922zm0-14.5839844c-3.7451172 0-6.7919922 3.046875-6.7919922 6.7919922s3.046875 6.7919922 6.7919922 6.7919922 6.7919922-3.046875 6.7919922-6.7919922-3.046875-6.7919922-6.7919922-6.7919922z"/></g><g><path d="m48.8938637 58.5814171c-1.8154297 0-3.2919922-1.4770508-3.2919922-3.2924805s1.4765625-3.2924805 3.2919922-3.2924805 3.2924805 1.4770508 3.2924805 3.2924805-1.4770508 3.2924805-3.2924805 3.2924805zm-25.0268536 0c-1.8154297 0-3.2919922-1.4770508-3.2919922-3.2924805s1.4765625-3.2924805 3.2919922-3.2924805 3.2924805 1.4770508 3.2924805 3.2924805-1.4770508 3.2924805-3.2924805 3.2924805z" fill="#fff"/><path d="m48.893486 59.0810547c-2.0908203 0-3.7919922-1.7011719-3.7919922-3.7919922 0-2.0917969 1.7011719-3.7929688 3.7919922-3.7929688 2.0917969 0 3.7929688 1.7011719 3.7929688 3.7929688 0 2.0908203-1.7011719 3.7919922-3.7929688 3.7919922zm0-6.5849609c-1.5390625 0-2.7919922 1.2529297-2.7919922 2.7929688 0 1.5390625 1.2529297 2.7919922 2.7919922 2.7919922 1.5400391 0 2.7929688-1.2529297 2.7929688-2.7919922 0-1.5400392-1.2529297-2.7929688-2.7929688-2.7929688zm-25.0263653 6.5849609c-2.0908203 0-3.7919922-1.7011719-3.7919922-3.7919922 0-2.0917969 1.7011719-3.7929688 3.7919922-3.7929688s3.7919922 1.7011719 3.7919922 3.7929688c0 2.0908203-1.7011718 3.7919922-3.7919922 3.7919922zm0-6.5849609c-1.5390625 0-2.7919922 1.2529297-2.7919922 2.7929688 0 1.5390625 1.2529297 2.7919922 2.7919922 2.7919922s2.7919922-1.2529297 2.7919922-2.7919922c0-1.5400392-1.2529297-2.7929688-2.7919922-2.7929688z"/></g><g><g><g><path d="m65.9684143 13.4794674h-45.4799786l8.8300781-7.4702153c.4499512-.3798828 1.0098877-.5898438 1.5998535-.5898438h27.9700947c.789917 0 1.539917.3798828 2 1.0302734z" fill="#b9b9b9"/><path d="m65.9686813 13.9794922h-45.4804668c-.2099609 0-.3974609-.1308594-.4697266-.328125s-.0136719-.4179688.1464844-.5537109l8.8300781-7.4707031c.5419922-.4570313 1.2246094-.7080078 1.9228516-.7080078h27.9707012c.9580078 0 1.8583984.4638672 2.4082031 1.2412109l5.0771484 7.0263672c.1103516.1523438.125.3535156.0400391.5205078-.0859375.1669921-.2578125.2724609-.4453125.2724609zm-44.1152324-1h43.1367188l-4.5068359-6.2373047c-.3652344-.5166016-.9609375-.8232422-1.5947266-.8232422h-27.9707032c-.4697266 0-.9111328.1630859-1.2773438.4716797z"/></g><g><path d="m65.9684143 13.4794674-6.9499474 38.0800781c-.2099609 1.1699219-1.2299805 2.0297852-2.4300537 2.0297852h-40.119997c-1.5400391 0-2.6999512-1.3896484-2.4399414-2.8999023l6.4599609-37.2099609h45.4799786z" fill="#dbdbdb"/><path d="m56.5887985 54.0888672h-40.1201153c-.8789063 0-1.7080078-.3857422-2.2744141-1.0576172-.5683594-.6738281-.8085938-1.5585938-.6591797-2.4267578l6.4609375-37.2109375c.0410156-.2392578.2490234-.4140625.4921875-.4140625h45.4804688c.1484375 0 .2890625.0654297.3837891.1796875s.1347656.2646484.1083984.4101563l-6.9501953 38.0800781c-.2539081 1.4130859-1.4824238 2.4394531-2.9218769 2.4394531zm-35.6796856-40.109375-6.3886719 36.7958984c-.0986328.5751953.0605469 1.1630859.4384766 1.6113281.3759766.4462891.9267578.7021484 1.5097656.7021484h40.1201172c.9541016 0 1.7695313-.6806641 1.9375-1.6171875l6.8427734-37.4921875h-44.4599609z"/></g><g><path d="m42.424057 5.4194083-7.1271858 8.0645013h15.2035675l-2.9085083-8.0645013z" fill="#3275c6"/><path d="m50.5009079 13.984375h-15.2041016c-.1962891 0-.375-.1152344-.4560547-.2949219-.0810547-.1787109-.0488281-.3886719.0810547-.5361328l7.1269531-8.0654297c.0957031-.1074219.2314453-.1689453.375-.1689453h5.1679688c.2109375 0 .3984375.1318359.4707031.3300781l2.9091797 8.0654297c.0546875.1533203.0322266.3242188-.0615234.4570313-.09375.133789-.2460938.2128906-.4091797.2128906zm-14.0947266-1h13.3828125l-2.5488281-7.0654297h-4.5908203z"/></g><g><path d="m50.4951439 13.4839096-2.749836 15.3884487c-.0635185.3599491-.5076447.4973183-.7614708.2329082l-2.2951241-2.3905334c-.1586685-.1585426-.4019051-.1797161-.5816231-.0526752l-4.0402565 2.8558331c-.1797142.1270409-.4335365.1053505-.5923386-.0531921l-2.4642525-2.6017513c-.1586723-.1688728-.4124947-.1905613-.5922127-.0526772l-2.9932022 2.2526493c-.3278008.2432365-.7826424-.0315018-.7085342-.4337978l2.5805779-15.1452122h15.1982728z" fill="#488ff7"/><path d="m39.8026657 30.1015625c-.2470703 0-.4931641-.0957031-.6806641-.2822266l-2.4746094-2.6123047-2.921875 2.2548828c-.3193359.2382813-.7402344.2548828-1.0732422.0488281-.3310547-.2060547-.4980469-.5878906-.4277344-.9726563l2.5791016-15.1376953c.0410156-.2402344.2490234-.4160156.4931641-.4160156h15.1982422c.1484375 0 .2880859.0654297.3837891.1787109.0947266.1142578.1347656.2636719.1083984.4091797l-2.75 15.3876953c-.0625.3535156-.3144531.6376953-.6582031.7421875-.3457031.1025391-.7089844.0068359-.9560547-.2509766l-2.2949219-2.3896484-3.9716797 2.8642578c-.1679687.1181642-.3613281.1757814-.5537109.1757814zm-3.1201172-3.8818359c.2519531 0 .5048828.1015625.6923828.3007813l2.4628906 2.6005859 3.9804688-2.8671875c.3808594-.2685547.8955078-.2216797 1.2236328.1074219l2.3027344 2.3974609 2.5566406-14.7744141h-14.1826172l-2.5087891 14.7285156 2.9072266-2.3017578c.1679688-.1289062.366211-.1914062.5654297-.1914062z"/></g><g><path d="m38.7048645 39.9990692-1.3368797 8.1028748c-.0722237.469738-.4787788.8128891-.9574509.8128891h-15.2207355c-.6052551 0-1.0659523-.5420723-.9666023-1.1379585l1.3368797-8.0936127c.0723362-.4701805.4787807-.8221512.9575615-.8221512h15.2207355c.6052551 0 1.0659523.5416298.9664917 1.1379585z" fill="#488ff7"/><path d="m36.4100876 49.4150391h-15.2207012c-.4365234 0-.8476563-.1904297-1.1298828-.5234375-.2802734-.3320313-.4003906-.7685547-.3291016-1.1962891l1.3369141-8.0927734c.1083984-.7050781.7324219-1.2412109 1.4501953-1.2412109h15.2207012c.4365234 0 .8486328.1904297 1.1308594.5234375.2802734.3320313.4003906.7675781.3291016 1.1962891l-1.3369141 8.1015625c-.109375.711914-.7197266 1.2324218-1.4511719 1.2324218zm-13.8925762-10.053711c-.2285156 0-.4277344.1708984-.4628906.3984375l-1.3378906 8.0986328c-.03125.1904297.0527344.3242188.1064453.3867188.0537109.0634766.1728516.1699219.3662109.1699219h15.2207012c.234375 0 .4287109-.1640625.4638672-.3896484l1.3378906-8.1074219c0-.0009766 0-.0009766 0-.0009766.03125-.1894531-.0527344-.3232422-.1064453-.3857422-.0927734-.109375-.2226563-.1699219-.3671875-.1699219z"/></g></g><g><path d="m14.9061832 19.5439453h-2.34375c-.2763672 0-.5-.2236328-.5-.5s.2236328-.5.5-.5h2.34375c.2763672 0 .5.2236328.5.5s-.2236328.5-.5.5z"/></g><g><g><path d="m11.7450504 14.0439453h-6.0283203c-.2763672 0-.5-.2236328-.5-.5s.2236328-.5.5-.5h6.0283203c.2763672 0 .5.2236328.5.5s-.2236328.5-.5.5z"/></g><g><path d="m4.0878239 14.0439453h-2.0566407c-.2763673 0-.5000001-.2236328-.5000001-.5s.2236328-.5.5000001-.5h2.0566406c.2763672 0 .5.2236328.5.5s-.2236327.5-.4999999.5z"/></g><g><path d="m9.7733707 19.5439453h-5.6855468c-.2763672 0-.5-.2236328-.5-.5s.2236328-.5.5-.5h5.6855469c.2763672 0 .5.2236328.5.5s-.2236329.5-.5000001.5z"/></g><g><path d="m11.7450504 25.0439453h-3.2001953c-.2763672 0-.5-.2236328-.5-.5s.2236328-.5.5-.5h3.2001953c.2763672 0 .5.2236328.5.5s-.2236328.5-.5.5z"/></g><g><path d="m6.9452457 25.0439453h-4.9140625c-.2763673 0-.5000001-.2236328-.5000001-.5s.2236328-.5.5000001-.5h4.9140625c.2763672 0 .5.2236328.5.5s-.2236328.5-.5.5z"/></g><g><path d="m13.8016911 30.5439453h-5.5996094c-.2763672 0-.5-.2236328-.5-.5s.2236328-.5.5-.5h5.5996094c.2763672 0 .5.2236328.5.5s-.2236329.5-.5.5z"/></g><g><path d="m6.2020817 30.5439453h-2.1142578c-.2763672 0-.5-.2236328-.5-.5s.2236328-.5.5-.5h2.1142578c.2763672 0 .5.2236328.5.5s-.2236328.5-.5.5z"/></g><g><path d="m11.7450504 36.0439453h-3.2861328c-.2763672 0-.5-.2236328-.5-.5s.2236328-.5.5-.5h3.2861328c.2763672 0 .5.2236328.5.5s-.2236328.5-.5.5z"/></g><g><path d="m6.3739567 36.0439453h-4.3427735c-.2763673 0-.5000001-.2236328-.5000001-.5s.2236328-.5.5000001-.5h4.3427734c.2763672 0 .5.2236328.5.5s-.2236327.5-.4999999.5z"/></g><g><path d="m13.8016911 41.5439453h-5.3134766c-.2763672 0-.5-.2236328-.5-.5s.2236328-.5.5-.5h5.3134766c.2763672 0 .5.2236328.5.5s-.2236329.5-.5.5z"/></g><g><path d="m6.5165348 41.5439453h-2.4287109c-.2763672 0-.5-.2236328-.5-.5s.2236328-.5.5-.5h2.4287109c.2763672 0 .5.2236328.5.5s-.2236328.5-.5.5z"/></g><g><path d="m11.7450504 47.0439453h-3.3720703c-.2763672 0-.5-.2236328-.5-.5s.2236328-.5.5-.5h3.3720703c.2763672 0 .5.2236328.5.5s-.2236328.5-.5.5z"/></g><g><path d="m6.1161442 47.0439453h-4.084961c-.2763673 0-.5000001-.2236328-.5000001-.5s.2236328-.5.5000001-.5h4.0849609c.2763672 0 .5.2236328.5.5s-.2236327.5-.4999999.5z"/></g><g><path d="m10.4589176 52.5439453h-6.3710937c-.2763672 0-.5-.2236328-.5-.5s.2236328-.5.5-.5h6.3710938c.2763672 0 .5.2236328.5.5s-.2236329.5-.5000001.5z"/></g></g></g></g></svg>