<svg height="56" viewBox="0 0 46 56" width="46" xmlns="http://www.w3.org/2000/svg"><g id="Page-1" fill="none" fill-rule="evenodd"><g id="006---Notification" fill="#000" fill-rule="nonzero" transform="translate(-1)"><path id="Shape" d="m24 56c4.11 0 7.507-3.506 7.951-8h-15.9c.442 4.494 3.839 8 7.949 8z"/><path id="Shape" d="m5.241 46h37.759c2.1565102.0092823 3.9291278-1.6986348 4-3.854.0286433-1.0493146-.3739721-2.0645268-1.114-2.809-.8189816-.8497025-1.946873-1.3319509-3.127-1.337h-.759c-.5522847 0-1-.4477153-1-1v-20c0-9.38884075-7.6111593-17-17-17s-17 7.61115925-17 17v20c0 .5522847-.44771525 1-1 1h-1c-2.15651015-.0092823-3.92912777 1.6986348-4 3.854-.02840765 1.0492729.3741722 2.0643957 1.114 2.809.81898164.8497025 1.94687295 1.3319509 3.127 1.337z"/></g></g></svg>