<svg clip-rule="evenodd" fill-rule="evenodd" height="512" image-rendering="optimizeQuality" shape-rendering="geometricPrecision" text-rendering="geometricPrecision" viewBox="0 0 43.3492 43.3492" width="512" xmlns="http://www.w3.org/2000/svg"><g id="Layer_x0020_1"><path d="m26.9981 43.3492h-10.647c-.3281 0-.5926-.2645-.5926-.5926v-5.6092c-.2822-.1094-.5645-.2258-.8397-.3493l-3.9651 3.9652c-.2223.2222-.6174.2222-.8397 0l-7.5317-7.5281c-.2304-.2304-.23-.6059 0-.8397l3.9652-3.9651c-.1236-.2787-.24-.5574-.3493-.8432l-5.6056-.0001c-.3281.0035-.5926-.261-.5926-.589v-10.647c0-.3281.2645-.5926.5926-.5926l5.6056.0001c.1094-.2822.2258-.5645.3493-.8432l-3.9652-3.9652c-.231-.2311-.2293-.6067 0-.8397l7.5317-7.5282c.2329-.2329.6068-.2329.8397 0l3.9651 3.9652c.2787-.1236.5574-.24.8432-.3493l.0001-5.6056c0-.3281.2645-.5926.5926-.5926h10.6469c.3281 0 .5926.2645.5926.5926v5.6092c.2822.1094.5645.2258.8432.3493l3.9616-3.9688c.2223-.2222.6174-.2222.8397 0l7.5282 7.5282c.2329.2329.2329.6068 0 .8397l-3.9652 3.9651c.1236.2787.24.5574.3493.8432l5.6056.0001c.3281 0 .5926.2645.5926.5926v10.6469c0 .3281-.2645.5926-.5926.5926l-5.6092-.0001c-.1094.2822-.2258.5645-.3493.8432l3.9652 3.9651c.2328.2329.2328.6068 0 .8397l-7.5282 7.5282c-.2294.2329-.6068.2329-.8397 0l-3.9615-3.9651c-.2787.1236-.5574.24-.8432.3493v5.6057c-.0001.328-.2646.5925-.5926.5925zm-9.3416-25.3526 6.4419-2.5518-2.4238-.9809-6.424 2.5999zm8.17-3.1288 4.0447 1.636c.2394.0693.4289.2859.4289.5706v9.3345c0 .2434-.1517.4656-.3775.5538-.0519.0202-7.8621 3.1539-8.248 3.1539-.3862 0-8.1696-3.1237-8.2479-3.1539-.2293-.0882-.3775-.3069-.3775-.5538 0-.9513-.0322-9.2932.0197-9.4837.0429-.1683.1594-.3202.3508-.3977l8.0327-3.2491c.1412-.0564.3034-.0564.4446 0zm-.1366 1.2211c-1.0228.4096-4.3499 1.7549-6.3905 2.5447l2.3721.9197 6.4235-2.491zm-4.6889 4.4748c-1.5003-.5424-5.085-1.9555-6.7664-2.6179v8.0574l6.8474 2.6529v-8.061zm8.1137-2.6201-6.8474 2.6515v8.061l6.8473-2.6529zm-7.4401 16.3851c-6.9779 0-12.6541-5.6761-12.6541-12.6542 0-6.9779 5.6761-12.6541 12.6541-12.6541s12.6542 5.6761 12.6542 12.6541c-.0001 6.9781-5.6762 12.6542-12.6542 12.6542zm0-24.1229c-6.3252 0-11.4688 5.1436-11.4688 11.4688 0 6.3253 5.1436 11.4689 11.4688 11.4689 6.3253 0 11.4689-5.1436 11.4689-11.4689-.0001-6.3253-5.1436-11.4688-11.4689-11.4688zm-4.7308 31.9581h9.4616v-5.4292c0-.2505.1587-.4763.3951-.5574 1.1348-.3942 1.7387-.9502 2.1766-.508l3.8382 3.8383 6.6922-6.6922-3.8383-3.8382c-.1763-.1764-.2258-.448-.1164-.6738.2364-.4903.4446-.9948.6244-1.5028.0847-.2364.3069-.3951.5574-.3951l5.4293-.0001v-9.4616h-5.4292c-.6194 0-.651-.8034-1.1818-1.8979-.1094-.2259-.0634-.4974.1164-.6738l3.8383-3.8382-6.6888-6.6922-3.8417 3.8382c-.1764.1763-.448.2258-.6738.1164-.4939-.2364-.9983-.4446-1.5028-.6244-.2364-.0847-.3951-.3069-.3951-.5574v-5.4292h-9.4616v5.4292c0 .2505-.1587.4763-.3951.5574-1.1472.3999-1.7383.9504-2.1766.508l-3.8417-3.8382-6.6887 6.6887 3.8383 3.8382c.1763.1764.2222.448.1164.6738-.2329.4903-.4446.9948-.6244 1.5028-.0847.2364-.3069.3951-.5574.3951h-5.4293v9.4615h5.4292c.2505 0 .4763.1587.5574.3951.3986 1.1474.9515 1.7371.508 2.1766l-3.8382 3.8453 6.6922 6.6922 3.8382-3.8383c.1764-.1763.448-.2222.6738-.1164.4938.2364.9983.4446 1.5028.6244.2364.0847.3951.3069.3951.5574z"/><path d="m14.2346 26.0032 6.8474 2.6529v-8.061l-.081-.0314c-1.5003-.5424-5.085-1.9555-6.7664-2.6179z" fill="#ffe4af"/><path d="m17.6565 17.9966 6.4419-2.5518-2.4238-.9809-6.424 2.5999z" fill="#baa780"/><path d="m25.6899 16.0889c-1.0228.4096-4.3499 1.7549-6.3905 2.5447l2.3721.9197 6.4235-2.491z" fill="#baa780"/><path d="m29.1147 17.9436-6.8474 2.6515v8.061l6.8473-2.6529z" fill="#ffe4af"/><path d="m25.8265 14.8678 4.0447 1.636c.2394.0693.4289.2859.4289.5706v9.3345c0 .2434-.1517.4656-.3775.5538-.0519.0202-7.8621 3.1539-8.248 3.1539-.3862 0-8.1696-3.1237-8.2479-3.1539-.2293-.0882-.3775-.3069-.3775-.5538 0-.9513-.0322-9.2932.0197-9.4837.0429-.1683.1594-.3202.3508-.3977l8.0327-3.2491c.1412-.0564.3034-.0564.4446 0zm-4.1519 18.2757c6.3253 0 11.4689-5.1436 11.4689-11.4689-.0001-6.3253-5.1436-11.4688-11.4689-11.4688-6.3252 0-11.4688 5.1436-11.4688 11.4688 0 6.3253 5.1436 11.4689 11.4688 11.4689z" fill="#ccc"/><path d="m34.3288 21.6745c-.0001 6.9781-5.6762 12.6542-12.6542 12.6542-6.9779 0-12.6541-5.6761-12.6541-12.6542 0-6.9779 5.6761-12.6541 12.6541-12.6541s12.6542 5.6761 12.6542 12.6541zm-5.3517 13.9948 3.8382 3.8383 6.6922-6.6922-3.8383-3.8382c-.1763-.1764-.2258-.448-.1164-.6738.2364-.4903.4446-.9948.6244-1.5028.0847-.2364.3069-.3951.5574-.3951l5.4293-.0001v-9.4616h-5.4292c-.6194 0-.651-.8034-1.1818-1.8979-.1094-.2259-.0634-.4974.1164-.6738l3.8383-3.8382-6.6888-6.6922-3.8417 3.8382c-.1764.1763-.448.2258-.6738.1164-.4939-.2364-.9983-.4446-1.5028-.6244-.2364-.0847-.3951-.3069-.3951-.5574v-5.4292h-9.4616v5.4292c0 .2505-.1587.4763-.3951.5574-1.1472.3999-1.7383.9504-2.1766.508l-3.8417-3.8382-6.6887 6.6887 3.8383 3.8382c.1763.1764.2222.448.1164.6738-.2329.4903-.4446.9948-.6244 1.5028-.0847.2364-.3069.3951-.5574.3951h-5.4293v9.4615h5.4292c.2505 0 .4763.1587.5574.3951.3986 1.1474.9515 1.7371.508 2.1766l-3.8382 3.8453 6.6922 6.6922 3.8382-3.8383c.1764-.1763.448-.2222.6738-.1164.4938.2364.9983.4446 1.5028.6244.2364.0847.3951.3069.3951.5574v5.4258h9.4616v-5.4292c0-.2505.1587-.4763.3951-.5574 1.1348-.3942 1.7387-.9502 2.1766-.508z" fill="#ff6a6a"/></g></svg>