<svg viewBox="0 0 512 512" xmlns="http://www.w3.org/2000/svg"><g id="Layer_11" data-name="Layer 11"><path d="m256 0c-141.39 0-256 114.61-256 256s114.61 256 256 256 256-114.62 256-256-114.62-256-256-256zm218 256a218.06 218.06 0 0 1 -418.88 84.84 218.06 218.06 0 0 1 401.76-169.68 216.52 216.52 0 0 1 17.12 84.84z"/><path d="m339.6 267.49a155.68 155.68 0 0 0 -40-20.12 87.93 87.93 0 1 0 -87.26 0 155.68 155.68 0 0 0 -40 20.12c-23 16-42.15 38.22-53.84 62.5-7.14 14.72-6.71 32.9 1.18 49.88 9 19.44 26.07 34 45.53 38.89a4.37 4.37 0 0 0 .52.12 411.09 411.09 0 0 0 180.42 0 4.7 4.7 0 0 0 .51-.12c19.47-4.91 36.49-19.46 45.53-38.9 7.9-17 8.33-35.18 1.2-49.83-11.63-24.3-30.75-46.51-53.79-62.54zm-83.6-146.37a49.93 49.93 0 1 1 -49.93 49.93 50 50 0 0 1 49.93-49.93zm101.8 242.72c-4.17 9-11.88 15.84-20.16 18a373.46 373.46 0 0 1 -163.29 0c-8.28-2.17-16-9.06-20.15-18-3-6.48-3.56-12.93-1.45-17.27v-.07c8.93-18.5 23.6-35.5 41.35-47.81 19.11-13.3 40.51-20.41 61.9-20.58 21.39.17 42.79 7.28 61.9 20.58 17.74 12.31 32.41 29.31 41.34 47.88 2.11 4.34 1.57 10.79-1.44 17.27z"/></g></svg>