<svg id="Layer_1" enable-background="new 0 0 512 512" viewBox="0 0 512 512" xmlns="http://www.w3.org/2000/svg"><g><g fill="#005284"><path d="m86 41h308c10 0 19.1 4.1 25.7 10.7s10.7 15.7 10.7 25.7v344.9c0 1.9-.8 3.6-2 4.9l-75.9 75.8c-1.3 1.3-3.1 2-4.8 2h-261.7c-10 0-19.1-4.1-25.7-10.7s-10.7-15.7-10.7-25.7v-391.2c0-10 4.1-19.1 10.7-25.7s15.7-10.7 25.7-10.7zm308 13.6h-308c-6.3 0-12 2.6-16.1 6.7s-6.7 9.8-6.7 16.1v391.2c0 6.3 2.6 12 6.7 16.1s9.8 6.7 16.1 6.7h258.9l71.9-71.9v-342.1c0-6.3-2.6-12-6.7-16.1-4.2-4.1-9.9-6.7-16.1-6.7z"/><path d="m354.5 498.2c0 3.8-3 6.8-6.8 6.8-3.7 0-6.8-3.1-6.8-6.8v-66.7c0-4.4 1.8-8.4 4.7-11.3s6.9-4.7 11.2-4.7h66.7c3.7 0 6.8 3.1 6.8 6.8 0 3.8-3.1 6.8-6.8 6.8h-66.7c-.6 0-1.2.3-1.6.7s-.7 1-.7 1.7z"/><path d="m384.8 471c-3.7 0-6.8-3.1-6.8-6.8 0-3.8 3-6.8 6.8-6.8h41.2c6.3 0 12-2.6 16.1-6.7s6.7-9.8 6.7-16.1v-391.2c0-6.3-2.6-12-6.7-16.1s-9.8-6.7-16.1-6.7h-307.9c-6.3 0-12 2.5-16.1 6.7-4.1 4.1-6.7 9.8-6.7 16.1v4.4c0 3.7-3.1 6.8-6.8 6.8-3.8 0-6.8-3.1-6.8-6.8v-4.4c0-10 4.1-19.1 10.7-25.7 6.5-6.6 15.6-10.7 25.7-10.7h307.9c10 0 19.1 4.1 25.7 10.7s10.7 15.7 10.7 25.7v391.2c0 10-4.1 19.1-10.7 25.7s-15.7 10.7-25.7 10.7z"/><path d="m108.8 268.2c-3.7 0-6.8-3-6.8-6.8s3.1-6.8 6.8-6.8h178.3c3.7 0 6.8 3.1 6.8 6.8 0 3.8-3.1 6.8-6.8 6.8zm207 0c-3.7 0-6.8-3-6.8-6.8s3.1-6.8 6.8-6.8h55.3c3.7 0 6.8 3.1 6.8 6.8 0 3.8-3.1 6.8-6.8 6.8z"/><path d="m274.6 187.7c7.7 10.3 18.8 16.6 30.7 18.3 11.7 1.7 24-.9 34.3-8.4.2-.2.5-.4.8-.6 10.1-7.7 16.2-18.7 17.9-30.4s-.9-24-8.4-34.3c-.2-.2-.4-.5-.6-.8-7.7-10.1-18.7-16.2-30.4-17.9s-24 .9-34.3 8.4c-.2.2-.5.4-.8.6-10.1 7.7-16.2 18.7-17.9 30.4-1.7 11.9 1.1 24.4 8.7 34.7zm28.7 31.8c-15.3-2.3-29.7-10.3-39.6-23.7s-13.5-29.5-11.2-44.7 10.3-29.6 23.7-39.6c13.4-9.9 29.5-13.5 44.7-11.2 15.2 2.2 29.6 10.3 39.6 23.7 9.9 13.4 13.5 29.5 11.2 44.7-2.2 15.3-10.3 29.7-23.7 39.6-13.3 9.9-29.4 13.5-44.7 11.2z"/><path d="m260.5 172.3c-3.7.4-7.1-2.3-7.5-6s2.3-7.1 6-7.5l52.4-5.7c2.9-.3 5.6 1.3 6.8 3.7l24.9 47.2c1.8 3.3.5 7.4-2.8 9.2s-7.4.5-9.2-2.8l-22.8-43.2z"/><path d="m350.4 121.9c3-2.3 7.2-1.7 9.5 1.2 2.3 3 1.8 7.3-1.2 9.5l-42.4 32.6c-3 2.3-7.3 1.7-9.5-1.2-2.3-2.9-1.7-7.2 1.2-9.5z"/><path d="m108.8 310.1c-3.7 0-6.8-3-6.8-6.8 0-3.7 3.1-6.8 6.8-6.8h178.3c3.7 0 6.8 3.1 6.8 6.8 0 3.8-3.1 6.8-6.8 6.8zm207 0c-3.7 0-6.8-3-6.8-6.8 0-3.7 3.1-6.8 6.8-6.8h55.3c3.7 0 6.8 3.1 6.8 6.8 0 3.8-3.1 6.8-6.8 6.8z"/><path d="m108.8 352c-3.7 0-6.8-3-6.8-6.8 0-3.7 3.1-6.8 6.8-6.8h178.3c3.7 0 6.8 3.1 6.8 6.8 0 3.8-3.1 6.8-6.8 6.8zm207 0c-3.7 0-6.8-3-6.8-6.8 0-3.7 3.1-6.8 6.8-6.8h55.3c3.7 0 6.8 3.1 6.8 6.8 0 3.8-3.1 6.8-6.8 6.8z"/><path d="m108.8 393.9c-3.7 0-6.8-3-6.8-6.8s3.1-6.8 6.8-6.8h178.3c3.7 0 6.8 3.1 6.8 6.8 0 3.8-3.1 6.8-6.8 6.8zm207 0c-3.7 0-6.8-3-6.8-6.8s3.1-6.8 6.8-6.8h55.3c3.7 0 6.8 3.1 6.8 6.8 0 3.8-3.1 6.8-6.8 6.8z"/></g><path clip-rule="evenodd" d="m63.2 77.4v391.2c0 6.3 2.6 12 6.7 16.1s9.8 6.7 16.1 6.7h254.9v-59.9c0-4.4 1.8-8.4 4.7-11.3s6.9-4.7 11.2-4.7h59.9v-338.1c0-6.3-2.6-12-6.7-16.1s-9.8-6.7-16.1-6.7h-305.4-2.5c-6.3 0-12 2.6-16.1 6.7s-6.7 9.8-6.7 16.1zm45.6 177.2h178.3c3.7 0 6.8 3.1 6.8 6.8 0 3.8-3.1 6.8-6.8 6.8h-178.3c-3.7 0-6.8-3-6.8-6.8 0-3.7 3.1-6.8 6.8-6.8zm0 41.9h178.3c3.7 0 6.8 3.1 6.8 6.8 0 3.8-3.1 6.8-6.8 6.8h-178.3c-3.7 0-6.8-3-6.8-6.8 0-3.7 3.1-6.8 6.8-6.8zm0 41.9h178.3c3.7 0 6.8 3.1 6.8 6.8 0 3.8-3.1 6.8-6.8 6.8h-178.3c-3.7 0-6.8-3-6.8-6.8s3.1-6.8 6.8-6.8zm0 41.9h178.3c3.7 0 6.8 3.1 6.8 6.8 0 3.8-3.1 6.8-6.8 6.8h-178.3c-3.7 0-6.8-3-6.8-6.8s3.1-6.8 6.8-6.8zm200.2 6.8c0-3.8 3.1-6.8 6.8-6.8h55.3c3.7 0 6.8 3.1 6.8 6.8 0 3.8-3.1 6.8-6.8 6.8h-55.3c-3.7 0-6.8-3-6.8-6.8zm6.8-35.1c-3.7 0-6.8-3-6.8-6.8 0-3.7 3.1-6.8 6.8-6.8h55.3c3.7 0 6.8 3.1 6.8 6.8 0 3.8-3.1 6.8-6.8 6.8zm0-41.9c-3.7 0-6.8-3-6.8-6.8 0-3.7 3.1-6.8 6.8-6.8h55.3c3.7 0 6.8 3.1 6.8 6.8 0 3.8-3.1 6.8-6.8 6.8zm0-41.9c-3.7 0-6.8-3-6.8-6.8s3.1-6.8 6.8-6.8h55.3c3.7 0 6.8 3.1 6.8 6.8 0 3.8-3.1 6.8-6.8 6.8zm-63.3-117.1c2.3-15.2 10.3-29.6 23.7-39.6 13.4-9.9 29.5-13.5 44.7-11.2 14.8 2.2 28.8 9.8 38.7 22.5.1.1.2.2.3.4.1.1.2.3.3.4s.2.3.3.4c9.9 13.4 13.5 29.5 11.2 44.7-2.2 15.3-10.3 29.7-23.7 39.6-2.5 1.8-5 3.4-7.6 4.8-.1.1-.1.1-.2.1s-.1.1-.2.1c-11.6 6.1-24.4 8.1-36.8 6.2-15.3-2.3-29.7-10.3-39.6-23.7-9.8-13.4-13.4-29.5-11.1-44.7z" fill="#60b4ff" fill-rule="evenodd"/></g></svg>